<?xml version="1.0" encoding="utf-8"?>
<!-- Generator: Adobe Illustrator 27.0.0, SVG Export Plug-In . SVG Version: 6.00 Build 0)  -->
<svg version="1.1" id="Layer_1" xmlns="http://www.w3.org/2000/svg" xmlns:xlink="http://www.w3.org/1999/xlink" x="0px" y="0px"
	 viewBox="0 0 100 100" style="enable-background:new 0 0 100 100;" xml:space="preserve">
<style type="text/css">
	.st0{fill:#1698D5;}
</style>
<g>
	<path class="st0" d="M84.74,49.56c-0.23-0.92-0.46-1.81-0.7-2.65l-0.76,1.13c2.52,7.85,3.22,13.54,3.4,13.54
		C86.85,61.54,86.36,56.09,84.74,49.56z M53.48,68.42c-13.12-0.19-24.71-1.62-34.36-3.4c0.19-1.69,0.37-3.38,0.55-5.07
		c0.09-0.59,0.19-1.17,0.28-1.76c0.4-2.37,0.97-4.96,1.77-7.71c1.25-4.29,2.77-8,4.27-11.1c7.68-1.07,16.38-1.82,25.93-1.91
		c7.44-0.07,14.33,0.28,20.6,0.86c0.39,0.04,0.78,0.08,1.17,0.11c1.05,0.1,2.11,0.21,3.18,0.33c1.04,0.12,2.06,0.24,3.07,0.38
		c0.47,1.09,1.07,2.52,1.72,4.23h1.28c-0.77-2.31-1.54-4.27-2.21-5.83c-2.44-0.33-4.98-0.63-7.62-0.89
		c-0.68-2.01-1.36-3.73-1.95-5.11c-7.69-1.04-16.48-1.78-26.19-1.82c-9.74-0.05-18.57,0.61-26.28,1.58
		c-1.5,3.35-3.07,7.55-4.23,12.52c-1.32,5.67-1.73,10.73-1.78,14.76c1.79,0.4,3.68,0.79,5.69,1.15c-0.26,2.49-0.37,4.78-0.4,6.83
		c9.16,2.05,21.11,3.83,35.09,3.68c13.04-0.14,24.23-1.93,32.96-3.95C76.77,67.64,65.8,68.59,53.48,68.42z M13.75,57.14
		c0.27-3.78,0.93-8.41,2.42-13.55c1.17-4.02,2.59-7.48,3.98-10.34c7.11-0.99,15.22-1.7,24.16-1.78c9.73-0.09,18.5,0.59,26.11,1.58
		c0.4,0.92,0.9,2.1,1.43,3.5c-5.95-0.56-12.38-0.92-19.23-0.95c-10.45-0.05-19.92,0.65-28.2,1.69c-1.62,3.6-3.3,8.11-4.54,13.43
		c-0.6,2.55-1.02,4.98-1.31,7.26C16.91,57.71,15.3,57.43,13.75,57.14z"/>
	<path d="M28.2,44.87h4.56l3.71,6.03l3.71-6.03h4.56v15.57h-4.29v-8.94l-3.98,6.09h-0.09l-3.96-6.05v8.9H28.2V44.87z"/>
	<path d="M55.11,44.76h4.16l6.63,15.68h-4.63l-1.13-2.78h-6l-1.11,2.78h-4.54L55.11,44.76z M58.89,54.3l-1.73-4.43L55.4,54.3H58.89z
		"/>
	<path d="M73.4,52.52l-5.11-7.65h4.96L76,49.25l2.78-4.38h4.85l-5.12,7.61l5.34,7.96h-4.96l-2.98-4.69l-3,4.69h-4.85L73.4,52.52z"/>
</g>
</svg>
