<?xml version="1.0" encoding="utf-8"?>
<!-- Generator: Adobe Illustrator 27.0.0, SVG Export Plug-In . SVG Version: 6.00 Build 0)  -->
<svg version="1.1" id="Layer_1" xmlns="http://www.w3.org/2000/svg" xmlns:xlink="http://www.w3.org/1999/xlink" x="0px" y="0px"
	 viewBox="0 0 50 15" style="enable-background:new 0 0 50 15;" xml:space="preserve">
<style type="text/css">
	.st0{fill:#1698D5;}
	.st1{fill:#B0B2B2;}
	.st2{fill:#ED2024;}
	.st3{fill:#4D4E4E;}
</style>
<path class="st0" d="M25.52,7.37c-0.07-0.28-0.14-0.54-0.21-0.8l-0.23,0.34C25.84,9.28,26.05,11,26.11,11
	C26.16,10.99,26.01,9.34,25.52,7.37z M16.09,13.06c-3.96-0.06-7.46-0.49-10.37-1.03c0.06-0.51,0.11-1.02,0.17-1.53
	c0.03-0.18,0.06-0.35,0.08-0.53c0.12-0.72,0.29-1.5,0.53-2.33C6.88,6.35,7.34,5.23,7.79,4.3c2.32-0.32,4.94-0.55,7.83-0.58
	c2.24-0.02,4.33,0.08,6.22,0.26c0.12,0.01,0.24,0.02,0.35,0.03c0.32,0.03,0.64,0.06,0.96,0.1c0.31,0.04,0.62,0.07,0.93,0.11
	c0.14,0.33,0.32,0.76,0.52,1.28h0.39c-0.23-0.7-0.47-1.29-0.67-1.76c-0.74-0.1-1.5-0.19-2.3-0.27c-0.2-0.61-0.41-1.12-0.59-1.54
	c-2.32-0.31-4.97-0.54-7.91-0.55c-2.94-0.01-5.6,0.18-7.93,0.48C5.13,2.87,4.66,4.14,4.31,5.64c-0.4,1.71-0.52,3.24-0.54,4.45
	c0.54,0.12,1.11,0.24,1.72,0.35c-0.08,0.75-0.11,1.44-0.12,2.06c2.76,0.62,6.37,1.16,10.59,1.11c3.94-0.04,7.31-0.58,9.95-1.19
	C23.12,12.83,19.8,13.12,16.09,13.06z M4.09,9.66c0.08-1.14,0.28-2.54,0.73-4.09c0.35-1.21,0.78-2.26,1.2-3.12
	c2.15-0.3,4.59-0.51,7.29-0.54c2.94-0.03,5.58,0.18,7.88,0.48c0.12,0.28,0.27,0.63,0.43,1.06c-1.79-0.17-3.74-0.28-5.8-0.29
	c-3.15-0.02-6.01,0.2-8.51,0.51C6.83,4.75,6.33,6.11,5.95,7.72c-0.18,0.77-0.31,1.5-0.4,2.19C5.05,9.83,4.56,9.75,4.09,9.66z"/>
<path d="M8.46,5.96h1.38l1.12,1.82l1.12-1.82h1.38v4.7h-1.3v-2.7l-1.2,1.84h-0.03L9.73,7.97v2.68H8.46V5.96z"/>
<path d="M16.58,5.92h1.26l2,4.73h-1.4L18.1,9.82h-1.81l-0.34,0.84h-1.37L16.58,5.92z M17.72,8.8L17.2,7.47L16.67,8.8H17.72z"/>
<path d="M22.1,8.26l-1.54-2.31h1.5l0.83,1.32l0.84-1.32h1.46l-1.54,2.3l1.61,2.4h-1.5l-0.9-1.42l-0.91,1.42h-1.46L22.1,8.26z"/>
<path class="st1" d="M27.24,5.96v4.7h-0.53v-4.7H27.24z"/>
<path class="st1" d="M31.54,9.37h-0.03L29.8,6.86v3.8h-0.52v-4.7h0.54l1.71,2.56l1.71-2.56h0.54v4.7h-0.53V6.85L31.54,9.37z"/>
<path class="st1" d="M39.62,8.65c0,0.34-0.05,0.65-0.14,0.91c-0.09,0.26-0.23,0.48-0.4,0.65c-0.17,0.17-0.38,0.31-0.62,0.39
	c-0.24,0.09-0.51,0.13-0.8,0.13c-0.29,0-0.56-0.04-0.8-0.13c-0.24-0.09-0.45-0.22-0.62-0.39c-0.17-0.17-0.31-0.39-0.4-0.64
	c-0.09-0.25-0.14-0.55-0.14-0.88V5.96h0.53v2.7c0,0.51,0.13,0.9,0.38,1.17c0.25,0.27,0.61,0.41,1.06,0.41
	c0.43,0,0.78-0.13,1.03-0.39c0.26-0.26,0.38-0.65,0.38-1.16V5.96h0.53V8.65z"/>
<path class="st1" d="M43.81,9.37h-0.03l-1.71-2.51v3.8h-0.52v-4.7h0.54l1.71,2.56l1.71-2.56h0.54v4.7h-0.53V6.85L43.81,9.37z"/>
<path class="st2" d="M30.66,13.48c-0.12,0.05-0.26,0.08-0.42,0.08c-0.14,0-0.27-0.02-0.39-0.07c-0.11-0.05-0.21-0.12-0.29-0.2
	c-0.08-0.08-0.14-0.18-0.18-0.3c-0.04-0.11-0.06-0.24-0.06-0.37c0-0.12,0.02-0.24,0.07-0.36c0.04-0.11,0.11-0.21,0.19-0.3
	c0.08-0.09,0.18-0.16,0.29-0.21c0.11-0.05,0.24-0.08,0.37-0.08c0.08,0,0.15,0.01,0.21,0.02c0.06,0.01,0.12,0.03,0.18,0.05
	c0.05,0.02,0.11,0.05,0.15,0.08s0.09,0.06,0.14,0.1l-0.13,0.16c-0.03-0.03-0.07-0.06-0.11-0.08c-0.04-0.03-0.08-0.05-0.12-0.06
	c-0.04-0.02-0.09-0.03-0.15-0.04c-0.05-0.01-0.11-0.02-0.18-0.02c-0.1,0-0.19,0.02-0.28,0.06c-0.08,0.04-0.16,0.09-0.22,0.16
	c-0.06,0.07-0.11,0.15-0.14,0.24c-0.03,0.09-0.05,0.19-0.05,0.29c0,0.11,0.02,0.21,0.05,0.3c0.03,0.09,0.08,0.17,0.14,0.24
	c0.06,0.07,0.14,0.12,0.23,0.16c0.09,0.04,0.19,0.06,0.3,0.06c0.1,0,0.2-0.02,0.29-0.05c0.09-0.04,0.17-0.08,0.23-0.13v-0.45h-0.55
	v-0.18h0.75v0.72C30.89,13.36,30.78,13.42,30.66,13.48z"/>
<path class="st2" d="M32.48,11.71h0.21v1.63h1.02v0.19h-1.23V11.71z"/>
<path class="st2" d="M36.82,13.53H36.6l-0.21-0.48h-0.99l-0.22,0.48h-0.21l0.83-1.83h0.19L36.82,13.53z M35.89,11.94l-0.42,0.93
	h0.83L35.89,11.94z"/>
<path class="st2" d="M38.36,12.28c0.01,0.03,0.04,0.07,0.08,0.1c0.04,0.03,0.09,0.05,0.15,0.08c0.06,0.02,0.15,0.05,0.25,0.07
	c0.2,0.05,0.35,0.11,0.45,0.19c0.1,0.08,0.14,0.19,0.14,0.33c0,0.08-0.02,0.15-0.05,0.21c-0.03,0.06-0.07,0.12-0.13,0.16
	c-0.05,0.05-0.12,0.08-0.2,0.1c-0.08,0.02-0.16,0.04-0.25,0.04c-0.15,0-0.28-0.02-0.4-0.07c-0.12-0.05-0.24-0.12-0.34-0.22
	l0.13-0.15c0.1,0.09,0.19,0.15,0.29,0.19c0.1,0.04,0.21,0.06,0.34,0.06c0.12,0,0.22-0.03,0.3-0.09c0.07-0.06,0.11-0.13,0.11-0.23
	c0-0.04-0.01-0.08-0.02-0.12c-0.01-0.03-0.04-0.06-0.07-0.09c-0.03-0.03-0.08-0.05-0.14-0.08c-0.06-0.02-0.14-0.04-0.24-0.07
	c-0.1-0.02-0.2-0.05-0.27-0.08c-0.08-0.03-0.14-0.07-0.19-0.11c-0.05-0.04-0.09-0.09-0.11-0.15c-0.02-0.06-0.04-0.12-0.04-0.2
	c0-0.07,0.01-0.14,0.04-0.2c0.03-0.06,0.07-0.11,0.12-0.16c0.05-0.04,0.12-0.08,0.19-0.1c0.07-0.03,0.15-0.04,0.24-0.04
	c0.13,0,0.25,0.02,0.35,0.06c0.1,0.04,0.2,0.09,0.29,0.17l-0.12,0.16c-0.08-0.07-0.17-0.12-0.26-0.15
	c-0.09-0.03-0.18-0.05-0.27-0.05c-0.06,0-0.11,0.01-0.16,0.02c-0.05,0.02-0.09,0.04-0.12,0.06c-0.03,0.03-0.06,0.06-0.08,0.09
	c-0.02,0.04-0.03,0.08-0.03,0.12C38.34,12.21,38.35,12.24,38.36,12.28z"/>
<path class="st2" d="M41.04,12.28c0.01,0.03,0.04,0.07,0.08,0.1c0.04,0.03,0.09,0.05,0.15,0.08c0.06,0.02,0.15,0.05,0.25,0.07
	c0.2,0.05,0.35,0.11,0.45,0.19c0.1,0.08,0.14,0.19,0.14,0.33c0,0.08-0.02,0.15-0.05,0.21c-0.03,0.06-0.07,0.12-0.13,0.16
	c-0.05,0.05-0.12,0.08-0.2,0.1c-0.08,0.02-0.16,0.04-0.25,0.04c-0.15,0-0.28-0.02-0.4-0.07c-0.12-0.05-0.24-0.12-0.34-0.22
	l0.13-0.15c0.1,0.09,0.19,0.15,0.29,0.19c0.1,0.04,0.21,0.06,0.34,0.06c0.12,0,0.22-0.03,0.3-0.09c0.07-0.06,0.11-0.13,0.11-0.23
	c0-0.04-0.01-0.08-0.02-0.12c-0.01-0.03-0.04-0.06-0.07-0.09c-0.03-0.03-0.08-0.05-0.14-0.08c-0.06-0.02-0.14-0.04-0.24-0.07
	c-0.1-0.02-0.2-0.05-0.27-0.08c-0.08-0.03-0.14-0.07-0.19-0.11c-0.05-0.04-0.09-0.09-0.11-0.15c-0.02-0.06-0.04-0.12-0.04-0.2
	c0-0.07,0.01-0.14,0.04-0.2c0.03-0.06,0.07-0.11,0.12-0.16c0.05-0.04,0.12-0.08,0.19-0.1c0.07-0.03,0.15-0.04,0.24-0.04
	c0.13,0,0.25,0.02,0.35,0.06c0.1,0.04,0.2,0.09,0.29,0.17l-0.12,0.16c-0.08-0.07-0.17-0.12-0.26-0.15
	c-0.09-0.03-0.18-0.05-0.27-0.05c-0.06,0-0.11,0.01-0.16,0.02c-0.05,0.02-0.09,0.04-0.12,0.06c-0.03,0.03-0.06,0.06-0.08,0.09
	c-0.02,0.04-0.03,0.08-0.03,0.12C41.02,12.21,41.02,12.24,41.04,12.28z"/>
</svg>
